<?xml version="1.0" encoding="utf-8"?>
<!-- created with bpmn-js / http://bpmn.io -->
<!DOCTYPE svg PUBLIC "-//W3C//DTD SVG 1.1//EN" "http://www.w3.org/Graphics/SVG/1.1/DTD/svg11.dtd">
<svg xmlns="http://www.w3.org/2000/svg" xmlns:xlink="http://www.w3.org/1999/xlink" width="1160" height="420" viewBox="155 75 1160 420" version="1.1"><defs><pattern id="djs-grid-pattern-500420" width="10" height="10" patternUnits="userSpaceOnUse"><circle cx="0.5" cy="0.5" r="0.5" style="fill: rgb(204, 204, 204); --darkreader-inline-fill: #c8c3bc;" data-darkreader-inline-fill=""/></pattern><marker id="sequenceflow-end-white-hsl_225_10_15_-8kghkbrvfh9w05wbobg74vre9" viewBox="0 0 20 20" refX="11" refY="10" markerWidth="10" markerHeight="10" orient="auto"><path d="M 1 5 L 11 10 L 1 15 Z" style="stroke-linecap: round; stroke-linejoin: round; stroke: rgb(34, 36, 42); stroke-width: 1px; fill: rgb(34, 36, 42); --darkreader-inline-stroke: #d0ccc6; --darkreader-inline-fill: #d0ccc6;" data-darkreader-inline-stroke="" data-darkreader-inline-fill=""/></marker><marker id="association-end-white-hsl_225_10_15_-8kghkbrvfh9w05wbobg74vre9" viewBox="0 0 20 20" refX="11" refY="10" markerWidth="10" markerHeight="10" orient="auto"><path d="M 1 5 L 11 10 L 1 15" style="fill: none; stroke-linecap: round; stroke-linejoin: round; stroke: rgb(34, 36, 42); stroke-width: 1.5px; stroke-dasharray: 10000px, 1px; --darkreader-inline-fill: none; --darkreader-inline-stroke: #d0ccc6;" data-darkreader-inline-fill="" data-darkreader-inline-stroke=""/></marker></defs><g class="djs-group"><g class="djs-element djs-shape" data-element-id="Process_Engine_1" transform="matrix(1, 0, 0, 1, 160, 80)" style="display: block;"><g class="djs-visual"><rect x="0" y="0" width="1150" height="410" rx="0" ry="0" style="stroke-linecap: round; stroke-linejoin: round; stroke: rgb(34, 36, 42); stroke-width: 1.5px; fill: white; fill-opacity: 0.95;"/><path style="fill: none; stroke-linecap: round; stroke-linejoin: round; stroke: rgb(34, 36, 42); stroke-width: 1.5px;" d="M30,0L30,410"/><text style="font-family: Arial, sans-serif; font-size: 12px; font-weight: normal; fill: rgb(34, 36, 42);" lineHeight="1.2" class="djs-label" transform="matrix(-1.83697e-16, -1, 1, -1.83697e-16, 0, 410)"><tspan x="164" y="18.6">Invoice Receipt</tspan></text></g><rect x="-5" y="-5" rx="4" width="1160" height="420" style="fill: none; --darkreader-inline-fill: none;" class="djs-outline" data-darkreader-inline-fill=""/><rect style="fill: none; stroke-opacity: 0; stroke: white; stroke-width: 15px;" class="djs-hit djs-hit-no-move" x="0" y="0" width="1150" height="410"/><rect style="fill: none; stroke-opacity: 0; stroke: white; stroke-width: 15px;" class="djs-hit djs-hit-click-stroke" x="0" y="0" width="1150" height="410"/><rect style="fill: none; stroke-opacity: 0; stroke: white; stroke-width: 15px;" class="djs-hit djs-hit-all" x="0" y="0" width="30" height="410"/></g><g class="djs-children"><g class="djs-group"><g class="djs-element djs-shape" data-element-id="Approver" transform="matrix(1, 0, 0, 1, 190, 272)" style="display: block;"><g class="djs-visual"><rect x="0" y="0" width="1120" height="218" rx="0" ry="0" style="stroke-linecap: round; stroke-linejoin: round; stroke: rgb(34, 36, 42); stroke-width: 1.5px; fill: white; fill-opacity: 0.25;"/><text style="font-family: Arial, sans-serif; font-size: 12px; font-weight: normal; fill: rgb(34, 36, 42);" lineHeight="1.2" class="djs-label" transform="matrix(-1.83697e-16, -1, 1, -1.83697e-16, 0, 218)"><tspan x="60.33333206176758" y="18.6">Expense Manager</tspan></text></g><rect x="-5" y="-5" rx="4" width="1130" height="228" style="fill: none; --darkreader-inline-fill: none;" class="djs-outline" data-darkreader-inline-fill=""/><rect style="fill: none; stroke-opacity: 0; stroke: white; stroke-width: 15px;" class="djs-hit djs-hit-no-move" x="0" y="0" width="1120" height="218"/><rect style="fill: none; stroke-opacity: 0; stroke: white; stroke-width: 15px;" class="djs-hit djs-hit-click-stroke" x="0" y="0" width="1120" height="218"/><rect style="fill: none; stroke-opacity: 0; stroke: white; stroke-width: 15px;" class="djs-hit djs-hit-all" x="0" y="0" width="30" height="218"/></g></g><g class="djs-group"><g class="djs-element djs-shape selected" data-element-id="teamAssistant" transform="matrix(1, 0, 0, 1, 190, 80)" style="display: block;"><g class="djs-visual"><rect x="0" y="0" width="1120" height="193" rx="0" ry="0" style="stroke-linecap: round; stroke-linejoin: round; stroke: rgb(34, 36, 42); stroke-width: 1.5px; fill: white; fill-opacity: 0.25;"/><text style="font-family: Arial, sans-serif; font-size: 12px; font-weight: normal; fill: rgb(34, 36, 42);" lineHeight="1.2" class="djs-label" transform="matrix(-1.83697e-16, -1, 1, -1.83697e-16, 0, 193)"><tspan x="55.83333206176758" y="18.6">Team Assistant</tspan></text></g><rect x="-5" y="-5" rx="4" width="1130" height="203" style="fill: none; --darkreader-inline-fill: none;" class="djs-outline" data-darkreader-inline-fill=""/><rect style="fill: none; stroke-opacity: 0; stroke: white; stroke-width: 15px;" class="djs-hit djs-hit-no-move" x="0" y="0" width="1120" height="193"/><rect style="fill: none; stroke-opacity: 0; stroke: white; stroke-width: 15px;" class="djs-hit djs-hit-click-stroke" x="0" y="0" width="1120" height="193"/><rect style="fill: none; stroke-opacity: 0; stroke: white; stroke-width: 15px;" class="djs-hit djs-hit-all" x="0" y="0" width="30" height="193"/></g></g><g class="djs-group"><g class="djs-element djs-shape" data-element-id="approveInvoice" transform="matrix(1, 0, 0, 1, 523, 314)" style="display: block;"><g class="djs-visual"><rect x="0" y="0" width="100" height="80" rx="10" ry="10" style="stroke-linecap: round; stroke-linejoin: round; stroke: rgb(34, 36, 42); stroke-width: 2px; fill: white; fill-opacity: 0.95; --darkreader-inline-stroke: #d0ccc6; --darkreader-inline-fill: #e8e6e3;" data-darkreader-inline-stroke="" data-darkreader-inline-fill=""/><text style="font-family: Arial, sans-serif; font-size: 12px; font-weight: normal; fill: rgb(34, 36, 42); --darkreader-inline-fill: #d0ccc6;" lineHeight="1.2" class="djs-label" data-darkreader-inline-fill=""><tspan x="27.66666603088379" y="36.4">Approve </tspan><tspan x="31" y="50.8">Invoice</tspan></text><path style="fill: white; stroke-linecap: round; stroke-linejoin: round; stroke: rgb(34, 36, 42); stroke-width: 0.5px; --darkreader-inline-fill: #e8e6e3; --darkreader-inline-stroke: #d0ccc6;" d="m 15,12 c 0.909,-0.845 1.594,-2.049 1.594,-3.385 0,-2.554 -1.805,-4.62199999 -4.357,-4.62199999 -2.55199998,0 -4.28799998,2.06799999 -4.28799998,4.62199999 0,1.348 0.974,2.562 1.89599998,3.405 -0.52899998,0.187 -5.669,2.097 -5.794,4.7560005 v 6.718 h 17 v -6.718 c 0,-2.2980005 -5.5279996,-4.5950005 -6.0509996,-4.7760005 zm -8,6 l 0,5.5 m 11,0 l 0,-5" data-darkreader-inline-fill="" data-darkreader-inline-stroke=""/><path style="fill: white; stroke-linecap: round; stroke-linejoin: round; stroke: rgb(34, 36, 42); stroke-width: 0.5px; --darkreader-inline-fill: #e8e6e3; --darkreader-inline-stroke: #d0ccc6;" d="m 15,12 m 2.162,1.009 c 0,2.4470005 -2.158,4.4310005 -4.821,4.4310005 -2.66499998,0 -4.822,-1.981 -4.822,-4.4310005 " data-darkreader-inline-fill="" data-darkreader-inline-stroke=""/><path style="fill: rgb(34, 36, 42); stroke-linecap: round; stroke-linejoin: round; stroke: rgb(34, 36, 42); stroke-width: 0.5px; --darkreader-inline-fill: #d0ccc6; --darkreader-inline-stroke: #d0ccc6;" d="m 15,12 m -6.9,-3.80 c 0,0 2.25099998,-2.358 4.27399998,-1.177 2.024,1.181 4.221,1.537 4.124,0.965 -0.098,-0.57 -0.117,-3.79099999 -4.191,-4.13599999 -3.57499998,0.001 -4.20799998,3.36699999 -4.20699998,4.34799999 z" data-darkreader-inline-fill="" data-darkreader-inline-stroke=""/></g><rect style="fill: none; stroke-opacity: 0; stroke: white; stroke-width: 15px; --darkreader-inline-fill: none; --darkreader-inline-stroke: #e8e6e3;" class="djs-hit djs-hit-all" x="0" y="0" width="100" height="80" data-darkreader-inline-fill="" data-darkreader-inline-stroke=""/><rect x="-5" y="-5" rx="14" width="110" height="90" style="fill: none; --darkreader-inline-fill: none;" class="djs-outline" data-darkreader-inline-fill=""/></g></g><g class="djs-group"><g class="djs-element djs-shape" data-element-id="assignApprover" transform="matrix(1, 0, 0, 1, 350, 142)" style="display: block;"><g class="djs-visual"><rect x="0" y="0" width="100" height="80" rx="10" ry="10" style="stroke-linecap: round; stroke-linejoin: round; stroke: rgb(34, 36, 42); stroke-width: 2px; fill: white; fill-opacity: 0.95;"/><text style="font-family: Arial, sans-serif; font-size: 12px; font-weight: normal; fill: rgb(34, 36, 42);" lineHeight="1.2" class="djs-label"><tspan x="32" y="29.200000000000003">Assign </tspan><tspan x="23" y="43.6">Supposed </tspan><tspan x="35.333333015441895" y="58">Items</tspan></text><path style="fill: white; stroke-linecap: round; stroke-linejoin: round; stroke: rgb(34, 36, 42); stroke-width: 1px;" d="m 8,8 0,12 20,0 0,-12 zm 0,8 l 20,0 m -13,-4 l 0,8"/><path style="fill: rgb(34, 36, 42); stroke-linecap: round; stroke-linejoin: round; stroke: rgb(34, 36, 42); stroke-width: 1px;" d="m 8,8 0,4 20,0 0,-4 z"/></g><rect style="fill: none; stroke-opacity: 0; stroke: white; stroke-width: 15px; --darkreader-inline-fill: none; --darkreader-inline-stroke: #e8e6e3;" class="djs-hit djs-hit-all" x="0" y="0" width="100" height="80" data-darkreader-inline-fill="" data-darkreader-inline-stroke=""/><rect x="-5" y="-5" rx="14" width="110" height="90" style="fill: none; --darkreader-inline-fill: none;" class="djs-outline" data-darkreader-inline-fill=""/></g></g><g class="djs-group"><g class="djs-element djs-shape" data-element-id="StartEvent_1" transform="matrix(1, 0, 0, 1, 266, 168)" style="display: block;"><g class="djs-visual"><circle cx="14" cy="14" r="14" style="stroke-linecap: round; stroke-linejoin: round; stroke: rgb(34, 36, 42); stroke-width: 2px; fill: white; fill-opacity: 0.95;"/></g><rect style="fill: none; stroke-opacity: 0; stroke: white; stroke-width: 15px;" class="djs-hit djs-hit-all" x="0" y="0" width="28" height="28"/><circle cx="14" cy="14" r="19" style="fill: none;" class="djs-outline"/></g></g><g class="djs-group"><g class="djs-element djs-shape" data-element-id="StartEvent_1_label" transform="matrix(1, 0, 0, 1, 259, 201)" style="display: block;"><g class="djs-visual"><text style="font-family: Arial, sans-serif; font-size: 11px; font-weight: normal; fill: rgb(34, 36, 42);" lineHeight="1.2" class="djs-label"><tspan x="3.366666793823242" y="9.899999999999999">Invoice</tspan><tspan x="0" y="23.099999999999998">received</tspan></text></g><rect style="fill: none; stroke-opacity: 0; stroke: white; stroke-width: 15px;" class="djs-hit djs-hit-all" x="0" y="0" width="42" height="27"/><rect x="-5" y="-5" rx="4" width="52" height="37" style="fill: none;" class="djs-outline"/></g></g><g class="djs-group"><g class="djs-element djs-shape" data-element-id="reviewSuccessful_gw" transform="matrix(1, 0, 0, 1, 962, 162)" style="display: block;"><g class="djs-visual"><polygon style="stroke-linecap: round; stroke-linejoin: round; stroke: rgb(34, 36, 42); stroke-width: 2px; fill: white; fill-opacity: 0.95; --darkreader-inline-stroke: #d0ccc6; --darkreader-inline-fill: #e8e6e3;" points="20,0 40,20 20,40 0,20" data-darkreader-inline-stroke="" data-darkreader-inline-fill=""/><path style="fill: rgb(34, 36, 42); stroke-linecap: round; stroke-linejoin: round; stroke: rgb(34, 36, 42); stroke-width: 1px; --darkreader-inline-fill: #d0ccc6; --darkreader-inline-stroke: #d0ccc6;" d="m 12.8,12 5.942857142857143,7.771428571428571 -5.942857142857143,7.771428571428571 2.742857142857143,0 4.571428571428571,-5.971382857142857 4.571428571428571,5.971382857142857 2.742857142857143,0 -5.942857142857143,-7.771428571428571 5.942857142857143,-7.771428571428571 -2.742857142857143,0 -4.571428571428571,5.971382857142857 -4.571428571428571,-5.971382857142857 -2.742857142857143,0 z" data-darkreader-inline-fill="" data-darkreader-inline-stroke=""/></g><rect style="fill: none; stroke-opacity: 0; stroke: white; stroke-width: 15px; --darkreader-inline-fill: none; --darkreader-inline-stroke: #e8e6e3;" class="djs-hit djs-hit-all" x="0" y="0" width="40" height="40" data-darkreader-inline-fill="" data-darkreader-inline-stroke=""/><rect style="transform-box: fill-box; transform: rotate(45deg); transform-origin: center center 0px; fill: none; --darkreader-inline-fill: none;" x="2" y="2" rx="4" width="36" height="36" class="djs-outline" data-darkreader-inline-fill=""/></g></g><g class="djs-group"><g class="djs-element djs-shape" data-element-id="reviewSuccessful_gw_label" transform="matrix(1, 0, 0, 1, 953, 207)" style="display: block;"><g class="djs-visual"><text style="font-family: Arial, sans-serif; font-size: 11px; font-weight: normal; fill: rgb(34, 36, 42); --darkreader-inline-fill: #d0ccc6;" lineHeight="1.2" class="djs-label" data-darkreader-inline-fill=""><tspan x="10.691667556762695" y="9.899999999999999">Review</tspan><tspan x="0" y="23.099999999999998">successful?</tspan></text></g><rect style="fill: none; stroke-opacity: 0; stroke: white; stroke-width: 15px; --darkreader-inline-fill: none; --darkreader-inline-stroke: #e8e6e3;" class="djs-hit djs-hit-all" x="0" y="0" width="58" height="27" data-darkreader-inline-fill="" data-darkreader-inline-stroke=""/><rect x="-5" y="-5" rx="4" width="68" height="37" style="fill: none; --darkreader-inline-fill: none;" class="djs-outline" data-darkreader-inline-fill=""/></g></g><g class="djs-group"><g class="djs-element djs-shape" data-element-id="invoiceProcessed" transform="matrix(1, 0, 0, 1, 1236, 340)" style="display: block;"><g class="djs-visual"><circle cx="14" cy="14" r="14" style="stroke-linecap: round; stroke-linejoin: round; stroke: rgb(34, 36, 42); stroke-width: 4px; fill: white; fill-opacity: 0.95; --darkreader-inline-stroke: #d0ccc6; --darkreader-inline-fill: #e8e6e3;" data-darkreader-inline-stroke="" data-darkreader-inline-fill=""/></g><rect style="fill: none; stroke-opacity: 0; stroke: white; stroke-width: 15px; --darkreader-inline-fill: none; --darkreader-inline-stroke: #e8e6e3;" class="djs-hit djs-hit-all" x="0" y="0" width="28" height="28" data-darkreader-inline-fill="" data-darkreader-inline-stroke=""/><circle cx="14" cy="14" r="20" style="fill: none; --darkreader-inline-fill: none;" class="djs-outline" data-darkreader-inline-fill=""/></g></g><g class="djs-group"><g class="djs-element djs-shape" data-element-id="invoiceProcessed_label" transform="matrix(1, 0, 0, 1, 1225, 373)" style="display: block;"><g class="djs-visual"><text style="font-family: Arial, sans-serif; font-size: 11px; font-weight: normal; fill: rgb(34, 36, 42); --darkreader-inline-fill: #d0ccc6;" lineHeight="1.2" class="djs-label" data-darkreader-inline-fill=""><tspan x="7.950000762939453" y="9.899999999999999">Invoice</tspan><tspan x="0" y="23.099999999999998">processed</tspan></text></g><rect style="fill: none; stroke-opacity: 0; stroke: white; stroke-width: 15px; --darkreader-inline-fill: none; --darkreader-inline-stroke: #e8e6e3;" class="djs-hit djs-hit-all" x="0" y="0" width="51" height="27" data-darkreader-inline-fill="" data-darkreader-inline-stroke=""/><rect x="-5" y="-5" rx="4" width="61" height="37" style="fill: none; --darkreader-inline-fill: none;" class="djs-outline" data-darkreader-inline-fill=""/></g></g><g class="djs-group"><g class="djs-element djs-shape" data-element-id="ServiceTask_1" transform="matrix(1, 0, 0, 1, 1080, 314)" style="display: block;"><g class="djs-visual"><rect x="0" y="0" width="100" height="80" rx="10" ry="10" style="stroke-linecap: round; stroke-linejoin: round; stroke: rgb(34, 36, 42); stroke-width: 2px; fill: white; fill-opacity: 0.95; --darkreader-inline-stroke: #d0ccc6; --darkreader-inline-fill: #e8e6e3;" data-darkreader-inline-stroke="" data-darkreader-inline-fill=""/><text style="font-family: Arial, sans-serif; font-size: 12px; font-weight: normal; fill: rgb(34, 36, 42); --darkreader-inline-fill: #d0ccc6;" lineHeight="1.2" class="djs-label" data-darkreader-inline-fill=""><tspan x="9.333332061767578" y="43.599999999999994">Archive Invoice</tspan></text><circle cx="5" cy="5" r="5" style="stroke-linecap: round; stroke-linejoin: round; stroke: none; stroke-width: 2px; fill: white; --darkreader-inline-stroke: none; --darkreader-inline-fill: #e8e6e3;" transform="translate(6, 6)" data-darkreader-inline-stroke="" data-darkreader-inline-fill=""/><path style="fill: white; stroke-linecap: round; stroke-linejoin: round; stroke: rgb(34, 36, 42); stroke-width: 1px; --darkreader-inline-fill: #e8e6e3; --darkreader-inline-stroke: #d0ccc6;" d="m 12,18 v -1.71335 c 0.352326,-0.0705 0.703932,-0.17838 1.047628,-0.32133 0.344416,-0.14465 0.665822,-0.32133 0.966377,-0.52145 l 1.19431,1.18005 1.567487,-1.57688 -1.195028,-1.18014 c 0.403376,-0.61394 0.683079,-1.29908 0.825447,-2.01824 l 1.622133,-0.01 v -2.2196 l -1.636514,0.01 c -0.07333,-0.35153 -0.178319,-0.70024 -0.323564,-1.04372 -0.145244,-0.34406 -0.321407,-0.6644 -0.522735,-0.96217 l 1.131035,-1.13631 -1.583305,-1.56293 -1.129598,1.13589 c -0.614052,-0.40108 -1.302883,-0.68093 -2.022633,-0.82247 l 0.0093,-1.61852 h -2.241173 l 0.0042,1.63124 c -0.353763,0.0736 -0.705369,0.17977 -1.049785,0.32371 -0.344415,0.14437 -0.665102,0.32092 -0.9635006,0.52046 l -1.1698628,-1.15823 -1.5667691,1.5792 1.1684265,1.15669 c -0.4026573,0.61283 -0.68308,1.29797 -0.8247287,2.01713 l -1.6588041,0.003 v 2.22174 l 1.6724648,-0.006 c 0.073327,0.35077 0.1797598,0.70243 0.3242851,1.04472 0.1452428,0.34448 0.3214064,0.6644 0.5227339,0.96066 l -1.1993431,1.19723 1.5840256,1.56011 1.1964668,-1.19348 c 0.6140517,0.40346 1.3028827,0.68232 2.0233517,0.82331 l 7.19e-4,1.69892 h 2.226848 z m 0.221462,-3.9957 c -1.788948,0.7502 -3.8576,-0.0928 -4.6097055,-1.87438 -0.7521065,-1.78321 0.090598,-3.84627 1.8802645,-4.59604 1.78823,-0.74936 3.856881,0.0929 4.608987,1.87437 0.752106,1.78165 -0.0906,3.84612 -1.879546,4.59605 z" data-darkreader-inline-fill="" data-darkreader-inline-stroke=""/><circle cx="5" cy="5" r="5" style="stroke-linecap: round; stroke-linejoin: round; stroke: none; stroke-width: 2px; fill: white; --darkreader-inline-stroke: none; --darkreader-inline-fill: #e8e6e3;" transform="translate(11, 10)" data-darkreader-inline-stroke="" data-darkreader-inline-fill=""/><path style="fill: white; stroke-linecap: round; stroke-linejoin: round; stroke: rgb(34, 36, 42); stroke-width: 1px; --darkreader-inline-fill: #e8e6e3; --darkreader-inline-stroke: #d0ccc6;" d="m 17,22 v -1.71335 c 0.352326,-0.0705 0.703932,-0.17838 1.047628,-0.32133 0.344416,-0.14465 0.665822,-0.32133 0.966377,-0.52145 l 1.19431,1.18005 1.567487,-1.57688 -1.195028,-1.18014 c 0.403376,-0.61394 0.683079,-1.29908 0.825447,-2.01824 l 1.622133,-0.01 v -2.2196 l -1.636514,0.01 c -0.07333,-0.35153 -0.178319,-0.70024 -0.323564,-1.04372 -0.145244,-0.34406 -0.321407,-0.6644 -0.522735,-0.96217 l 1.131035,-1.13631 -1.583305,-1.56293 -1.129598,1.13589 c -0.614052,-0.40108 -1.302883,-0.68093 -2.022633,-0.82247 l 0.0093,-1.61852 h -2.241173 l 0.0042,1.63124 c -0.353763,0.0736 -0.705369,0.17977 -1.049785,0.32371 -0.344415,0.14437 -0.665102,0.32092 -0.9635006,0.52046 l -1.1698628,-1.15823 -1.5667691,1.5792 1.1684265,1.15669 c -0.4026573,0.61283 -0.68308,1.29797 -0.8247287,2.01713 l -1.6588041,0.003 v 2.22174 l 1.6724648,-0.006 c 0.073327,0.35077 0.1797598,0.70243 0.3242851,1.04472 0.1452428,0.34448 0.3214064,0.6644 0.5227339,0.96066 l -1.1993431,1.19723 1.5840256,1.56011 1.1964668,-1.19348 c 0.6140517,0.40346 1.3028827,0.68232 2.0233517,0.82331 l 7.19e-4,1.69892 h 2.226848 z m 0.221462,-3.9957 c -1.788948,0.7502 -3.8576,-0.0928 -4.6097055,-1.87438 -0.7521065,-1.78321 0.090598,-3.84627 1.8802645,-4.59604 1.78823,-0.74936 3.856881,0.0929 4.608987,1.87437 0.752106,1.78165 -0.0906,3.84612 -1.879546,4.59605 z" data-darkreader-inline-fill="" data-darkreader-inline-stroke=""/></g><rect style="fill: none; stroke-opacity: 0; stroke: white; stroke-width: 15px; --darkreader-inline-fill: none; --darkreader-inline-stroke: #e8e6e3;" class="djs-hit djs-hit-all" x="0" y="0" width="100" height="80" data-darkreader-inline-fill="" data-darkreader-inline-stroke=""/><rect x="-5" y="-5" rx="14" width="110" height="90" style="fill: none; --darkreader-inline-fill: none;" class="djs-outline" data-darkreader-inline-fill=""/></g></g><g class="djs-group"><g class="djs-element djs-shape" data-element-id="DataStoreReference_1" transform="matrix(1, 0, 0, 1, 938, 379)" style="display: block;"><g class="djs-visual"><path style="fill: white; stroke-linecap: round; stroke-linejoin: round; stroke: rgb(34, 36, 42); stroke-width: 2px; fill-opacity: 0.95; --darkreader-inline-fill: #e8e6e3; --darkreader-inline-stroke: #d0ccc6;" d="m  0,8.113 l  0,45 c  2.0655737704918034,10 59.9016393442623,10  61.9672131147541,0 l  0,-45 c -2.0655737704918034,-10 -59.9016393442623,-10 -61.9672131147541,0c  2.0655737704918034,10 59.9016393442623,10  61.9672131147541,0 m  -61.9672131147541,7c  2.0655737704918034,10 59.9016393442623,10 61.9672131147541,0m  -61.9672131147541,7c  2.0655737704918034,10 59.9016393442623,10  61.9672131147541,0" data-darkreader-inline-fill="" data-darkreader-inline-stroke=""/></g><rect style="fill: none; stroke-opacity: 0; stroke: white; stroke-width: 15px; --darkreader-inline-fill: none; --darkreader-inline-stroke: #e8e6e3;" class="djs-hit djs-hit-all" x="0" y="0" width="63" height="61" data-darkreader-inline-fill="" data-darkreader-inline-stroke=""/><rect x="0" y="0" rx="4" width="100" height="100" style="fill: none; --darkreader-inline-fill: none;" class="djs-outline" data-darkreader-inline-fill=""/></g></g><g class="djs-group"><g class="djs-element djs-shape" data-element-id="DataStoreReference_1_label" transform="matrix(1, 0, 0, 1, 942, 445)" style="display: block;"><g class="djs-visual"><text style="font-family: Arial, sans-serif; font-size: 11px; font-weight: normal; fill: rgb(34, 36, 42); --darkreader-inline-fill: #d0ccc6;" lineHeight="1.2" class="djs-label" data-darkreader-inline-fill=""><tspan x="5.191667556762695" y="9.899999999999999">Financial </tspan><tspan x="0" y="23.099999999999998">Accounting </tspan><tspan x="8.875" y="36.3">System</tspan></text></g><rect style="fill: none; stroke-opacity: 0; stroke: white; stroke-width: 15px; --darkreader-inline-fill: none; --darkreader-inline-stroke: #e8e6e3;" class="djs-hit djs-hit-all" x="0" y="0" width="55" height="40" data-darkreader-inline-fill="" data-darkreader-inline-stroke=""/><rect x="-5" y="-5" rx="4" width="65" height="50" style="fill: none; --darkreader-inline-fill: none;" class="djs-outline" data-darkreader-inline-fill=""/></g></g><g class="djs-group"><g class="djs-element djs-shape" data-element-id="invoice_approved" transform="matrix(1, 0, 0, 1, 680, 334)" style="display: block;"><g class="djs-visual"><polygon style="stroke-linecap: round; stroke-linejoin: round; stroke: rgb(34, 36, 42); stroke-width: 2px; fill: white; fill-opacity: 0.95; --darkreader-inline-stroke: #d0ccc6; --darkreader-inline-fill: #e8e6e3;" points="20,0 40,20 20,40 0,20" data-darkreader-inline-stroke="" data-darkreader-inline-fill=""/><path style="fill: rgb(34, 36, 42); stroke-linecap: round; stroke-linejoin: round; stroke: rgb(34, 36, 42); stroke-width: 1px; --darkreader-inline-fill: #d0ccc6; --darkreader-inline-stroke: #d0ccc6;" d="m 12.8,12 5.942857142857143,7.771428571428571 -5.942857142857143,7.771428571428571 2.742857142857143,0 4.571428571428571,-5.971382857142857 4.571428571428571,5.971382857142857 2.742857142857143,0 -5.942857142857143,-7.771428571428571 5.942857142857143,-7.771428571428571 -2.742857142857143,0 -4.571428571428571,5.971382857142857 -4.571428571428571,-5.971382857142857 -2.742857142857143,0 z" data-darkreader-inline-fill="" data-darkreader-inline-stroke=""/></g><rect style="fill: none; stroke-opacity: 0; stroke: white; stroke-width: 15px; --darkreader-inline-fill: none; --darkreader-inline-stroke: #e8e6e3;" class="djs-hit djs-hit-all" x="0" y="0" width="40" height="40" data-darkreader-inline-fill="" data-darkreader-inline-stroke=""/><rect style="transform-box: fill-box; transform: rotate(45deg); transform-origin: center center 0px; fill: none; --darkreader-inline-fill: none;" x="2" y="2" rx="4" width="36" height="36" class="djs-outline" data-darkreader-inline-fill=""/></g></g><g class="djs-group"><g class="djs-element djs-shape" data-element-id="invoice_approved_label" transform="matrix(1, 0, 0, 1, 675, 379)" style="display: block;"><g class="djs-visual"><text style="font-family: Arial, sans-serif; font-size: 11px; font-weight: normal; fill: rgb(34, 36, 42); --darkreader-inline-fill: #d0ccc6;" lineHeight="1.2" class="djs-label" data-darkreader-inline-fill=""><tspan x="8.566667556762695" y="9.899999999999999">Invoice</tspan><tspan x="0" y="23.099999999999998">approved?</tspan></text></g><rect style="fill: none; stroke-opacity: 0; stroke: white; stroke-width: 15px; --darkreader-inline-fill: none; --darkreader-inline-stroke: #e8e6e3;" class="djs-hit djs-hit-all" x="0" y="0" width="52" height="27" data-darkreader-inline-fill="" data-darkreader-inline-stroke=""/><rect x="-5" y="-5" rx="4" width="62" height="37" style="fill: none; --darkreader-inline-fill: none;" class="djs-outline" data-darkreader-inline-fill=""/></g></g><g class="djs-group"><g class="djs-element djs-shape" data-element-id="reviewInvoice" transform="matrix(1, 0, 0, 1, 650, 142)" style="display: block;"><g class="djs-visual"><rect x="0" y="0" width="100" height="80" rx="10" ry="10" style="stroke-linecap: round; stroke-linejoin: round; stroke: rgb(34, 36, 42); stroke-width: 2px; fill: white; fill-opacity: 0.95;"/><text style="font-family: Arial, sans-serif; font-size: 12px; font-weight: normal; fill: rgb(34, 36, 42);" lineHeight="1.2" class="djs-label"><tspan x="9.666667938232422" y="43.599999999999994">Review Invoice</tspan></text><circle cx="5" cy="5" r="5" style="stroke-linecap: round; stroke-linejoin: round; stroke: none; stroke-width: 2px; fill: white;" transform="translate(6, 6)"/><path style="fill: white; stroke-linecap: round; stroke-linejoin: round; stroke: rgb(34, 36, 42); stroke-width: 1px;" d="m 12,18 v -1.71335 c 0.352326,-0.0705 0.703932,-0.17838 1.047628,-0.32133 0.344416,-0.14465 0.665822,-0.32133 0.966377,-0.52145 l 1.19431,1.18005 1.567487,-1.57688 -1.195028,-1.18014 c 0.403376,-0.61394 0.683079,-1.29908 0.825447,-2.01824 l 1.622133,-0.01 v -2.2196 l -1.636514,0.01 c -0.07333,-0.35153 -0.178319,-0.70024 -0.323564,-1.04372 -0.145244,-0.34406 -0.321407,-0.6644 -0.522735,-0.96217 l 1.131035,-1.13631 -1.583305,-1.56293 -1.129598,1.13589 c -0.614052,-0.40108 -1.302883,-0.68093 -2.022633,-0.82247 l 0.0093,-1.61852 h -2.241173 l 0.0042,1.63124 c -0.353763,0.0736 -0.705369,0.17977 -1.049785,0.32371 -0.344415,0.14437 -0.665102,0.32092 -0.9635006,0.52046 l -1.1698628,-1.15823 -1.5667691,1.5792 1.1684265,1.15669 c -0.4026573,0.61283 -0.68308,1.29797 -0.8247287,2.01713 l -1.6588041,0.003 v 2.22174 l 1.6724648,-0.006 c 0.073327,0.35077 0.1797598,0.70243 0.3242851,1.04472 0.1452428,0.34448 0.3214064,0.6644 0.5227339,0.96066 l -1.1993431,1.19723 1.5840256,1.56011 1.1964668,-1.19348 c 0.6140517,0.40346 1.3028827,0.68232 2.0233517,0.82331 l 7.19e-4,1.69892 h 2.226848 z m 0.221462,-3.9957 c -1.788948,0.7502 -3.8576,-0.0928 -4.6097055,-1.87438 -0.7521065,-1.78321 0.090598,-3.84627 1.8802645,-4.59604 1.78823,-0.74936 3.856881,0.0929 4.608987,1.87437 0.752106,1.78165 -0.0906,3.84612 -1.879546,4.59605 z"/><circle cx="5" cy="5" r="5" style="stroke-linecap: round; stroke-linejoin: round; stroke: none; stroke-width: 2px; fill: white;" transform="translate(11, 10)"/><path style="fill: white; stroke-linecap: round; stroke-linejoin: round; stroke: rgb(34, 36, 42); stroke-width: 1px;" d="m 17,22 v -1.71335 c 0.352326,-0.0705 0.703932,-0.17838 1.047628,-0.32133 0.344416,-0.14465 0.665822,-0.32133 0.966377,-0.52145 l 1.19431,1.18005 1.567487,-1.57688 -1.195028,-1.18014 c 0.403376,-0.61394 0.683079,-1.29908 0.825447,-2.01824 l 1.622133,-0.01 v -2.2196 l -1.636514,0.01 c -0.07333,-0.35153 -0.178319,-0.70024 -0.323564,-1.04372 -0.145244,-0.34406 -0.321407,-0.6644 -0.522735,-0.96217 l 1.131035,-1.13631 -1.583305,-1.56293 -1.129598,1.13589 c -0.614052,-0.40108 -1.302883,-0.68093 -2.022633,-0.82247 l 0.0093,-1.61852 h -2.241173 l 0.0042,1.63124 c -0.353763,0.0736 -0.705369,0.17977 -1.049785,0.32371 -0.344415,0.14437 -0.665102,0.32092 -0.9635006,0.52046 l -1.1698628,-1.15823 -1.5667691,1.5792 1.1684265,1.15669 c -0.4026573,0.61283 -0.68308,1.29797 -0.8247287,2.01713 l -1.6588041,0.003 v 2.22174 l 1.6724648,-0.006 c 0.073327,0.35077 0.1797598,0.70243 0.3242851,1.04472 0.1452428,0.34448 0.3214064,0.6644 0.5227339,0.96066 l -1.1993431,1.19723 1.5840256,1.56011 1.1964668,-1.19348 c 0.6140517,0.40346 1.3028827,0.68232 2.0233517,0.82331 l 7.19e-4,1.69892 h 2.226848 z m 0.221462,-3.9957 c -1.788948,0.7502 -3.8576,-0.0928 -4.6097055,-1.87438 -0.7521065,-1.78321 0.090598,-3.84627 1.8802645,-4.59604 1.78823,-0.74936 3.856881,0.0929 4.608987,1.87437 0.752106,1.78165 -0.0906,3.84612 -1.879546,4.59605 z"/></g><rect style="fill: none; stroke-opacity: 0; stroke: white; stroke-width: 15px;" class="djs-hit djs-hit-all" x="0" y="0" width="100" height="80"/><rect x="-5" y="-5" rx="14" width="110" height="90" style="fill: none;" class="djs-outline"/></g></g><g class="djs-group"><g class="djs-element djs-shape" data-element-id="ServiceTask_06mdb3v" transform="matrix(1, 0, 0, 1, 810, 314)" style="display: block;"><g class="djs-visual"><rect x="0" y="0" width="100" height="80" rx="10" ry="10" style="stroke-linecap: round; stroke-linejoin: round; stroke: rgb(34, 36, 42); stroke-width: 2px; fill: white; fill-opacity: 0.95;"/><text style="font-family: Arial, sans-serif; font-size: 12px; font-weight: normal; fill: rgb(34, 36, 42);" lineHeight="1.2" class="djs-label"><tspan x="11.666667938232422" y="43.599999999999994">Notify Creditor</tspan></text><circle cx="5" cy="5" r="5" style="stroke-linecap: round; stroke-linejoin: round; stroke: none; stroke-width: 2px; fill: white;" transform="translate(6, 6)"/><path style="fill: white; stroke-linecap: round; stroke-linejoin: round; stroke: rgb(34, 36, 42); stroke-width: 1px;" d="m 12,18 v -1.71335 c 0.352326,-0.0705 0.703932,-0.17838 1.047628,-0.32133 0.344416,-0.14465 0.665822,-0.32133 0.966377,-0.52145 l 1.19431,1.18005 1.567487,-1.57688 -1.195028,-1.18014 c 0.403376,-0.61394 0.683079,-1.29908 0.825447,-2.01824 l 1.622133,-0.01 v -2.2196 l -1.636514,0.01 c -0.07333,-0.35153 -0.178319,-0.70024 -0.323564,-1.04372 -0.145244,-0.34406 -0.321407,-0.6644 -0.522735,-0.96217 l 1.131035,-1.13631 -1.583305,-1.56293 -1.129598,1.13589 c -0.614052,-0.40108 -1.302883,-0.68093 -2.022633,-0.82247 l 0.0093,-1.61852 h -2.241173 l 0.0042,1.63124 c -0.353763,0.0736 -0.705369,0.17977 -1.049785,0.32371 -0.344415,0.14437 -0.665102,0.32092 -0.9635006,0.52046 l -1.1698628,-1.15823 -1.5667691,1.5792 1.1684265,1.15669 c -0.4026573,0.61283 -0.68308,1.29797 -0.8247287,2.01713 l -1.6588041,0.003 v 2.22174 l 1.6724648,-0.006 c 0.073327,0.35077 0.1797598,0.70243 0.3242851,1.04472 0.1452428,0.34448 0.3214064,0.6644 0.5227339,0.96066 l -1.1993431,1.19723 1.5840256,1.56011 1.1964668,-1.19348 c 0.6140517,0.40346 1.3028827,0.68232 2.0233517,0.82331 l 7.19e-4,1.69892 h 2.226848 z m 0.221462,-3.9957 c -1.788948,0.7502 -3.8576,-0.0928 -4.6097055,-1.87438 -0.7521065,-1.78321 0.090598,-3.84627 1.8802645,-4.59604 1.78823,-0.74936 3.856881,0.0929 4.608987,1.87437 0.752106,1.78165 -0.0906,3.84612 -1.879546,4.59605 z"/><circle cx="5" cy="5" r="5" style="stroke-linecap: round; stroke-linejoin: round; stroke: none; stroke-width: 2px; fill: white;" transform="translate(11, 10)"/><path style="fill: white; stroke-linecap: round; stroke-linejoin: round; stroke: rgb(34, 36, 42); stroke-width: 1px;" d="m 17,22 v -1.71335 c 0.352326,-0.0705 0.703932,-0.17838 1.047628,-0.32133 0.344416,-0.14465 0.665822,-0.32133 0.966377,-0.52145 l 1.19431,1.18005 1.567487,-1.57688 -1.195028,-1.18014 c 0.403376,-0.61394 0.683079,-1.29908 0.825447,-2.01824 l 1.622133,-0.01 v -2.2196 l -1.636514,0.01 c -0.07333,-0.35153 -0.178319,-0.70024 -0.323564,-1.04372 -0.145244,-0.34406 -0.321407,-0.6644 -0.522735,-0.96217 l 1.131035,-1.13631 -1.583305,-1.56293 -1.129598,1.13589 c -0.614052,-0.40108 -1.302883,-0.68093 -2.022633,-0.82247 l 0.0093,-1.61852 h -2.241173 l 0.0042,1.63124 c -0.353763,0.0736 -0.705369,0.17977 -1.049785,0.32371 -0.344415,0.14437 -0.665102,0.32092 -0.9635006,0.52046 l -1.1698628,-1.15823 -1.5667691,1.5792 1.1684265,1.15669 c -0.4026573,0.61283 -0.68308,1.29797 -0.8247287,2.01713 l -1.6588041,0.003 v 2.22174 l 1.6724648,-0.006 c 0.073327,0.35077 0.1797598,0.70243 0.3242851,1.04472 0.1452428,0.34448 0.3214064,0.6644 0.5227339,0.96066 l -1.1993431,1.19723 1.5840256,1.56011 1.1964668,-1.19348 c 0.6140517,0.40346 1.3028827,0.68232 2.0233517,0.82331 l 7.19e-4,1.69892 h 2.226848 z m 0.221462,-3.9957 c -1.788948,0.7502 -3.8576,-0.0928 -4.6097055,-1.87438 -0.7521065,-1.78321 0.090598,-3.84627 1.8802645,-4.59604 1.78823,-0.74936 3.856881,0.0929 4.608987,1.87437 0.752106,1.78165 -0.0906,3.84612 -1.879546,4.59605 z"/></g><rect style="fill: none; stroke-opacity: 0; stroke: white; stroke-width: 15px; --darkreader-inline-fill: none; --darkreader-inline-stroke: #e8e6e3;" class="djs-hit djs-hit-all" x="0" y="0" width="100" height="80" data-darkreader-inline-fill="" data-darkreader-inline-stroke=""/><rect x="-5" y="-5" rx="14" width="110" height="90" style="fill: none; --darkreader-inline-fill: none;" class="djs-outline" data-darkreader-inline-fill=""/></g></g><g class="djs-group"><g class="djs-element djs-shape" data-element-id="invoiceNotProcessed" transform="matrix(1, 0, 0, 1, 1116, 168)" style="display: block;"><g class="djs-visual"><circle cx="18" cy="18" r="18" style="stroke-linecap: round; stroke-linejoin: round; stroke: rgb(34, 36, 42); stroke-width: 4px; fill: white; fill-opacity: 0.95;"/><path style="fill: rgb(34, 36, 42); stroke-linecap: round; stroke-linejoin: round; stroke: white; stroke-width: 1px;" d="m 8.459999999999999,11.34 l 0,12.6 l 18.900000000000002,0 l 0,-12.6 z l 9.450000000000001,5.4 l 9.450000000000001,-5.4"/></g><rect style="fill: none; stroke-opacity: 0; stroke: white; stroke-width: 15px;" class="djs-hit djs-hit-all" x="0" y="0" width="36" height="36"/><circle cx="18" cy="18" r="24" style="fill: none;" class="djs-outline"/></g></g><g class="djs-group"><g class="djs-element djs-connection" data-element-id="SequenceFlow_3" style="display: block;"><g class="djs-visual"><path style="fill: none; stroke-linecap: round; stroke-linejoin: round; stroke: rgb(34, 36, 42); stroke-width: 2px; marker-end: url('#sequenceflow-end-white-hsl_225_10_15_-8kghkbrvfh9w05wbobg74vre9'); --darkreader-inline-fill: none; --darkreader-inline-stroke: #d0ccc6;" data-corner-radius="5" d="M1180,354L1236,354" data-darkreader-inline-fill="" data-darkreader-inline-stroke=""/></g><path d="M1180,354L1236,354" style="fill: none; stroke-opacity: 0; stroke: white; stroke-width: 15px; --darkreader-inline-fill: none; --darkreader-inline-stroke: #e8e6e3;" class="djs-hit djs-hit-stroke" data-darkreader-inline-fill="" data-darkreader-inline-stroke=""/><rect x="1175" y="349" rx="4" width="66" height="10" style="fill: none; --darkreader-inline-fill: none;" class="djs-outline" data-darkreader-inline-fill=""/></g></g><g class="djs-group"><g class="djs-element djs-connection" data-element-id="reviewNotSuccessful" style="display: block;"><g class="djs-visual"><path style="fill: none; stroke-linecap: round; stroke-linejoin: round; stroke: rgb(34, 36, 42); stroke-width: 2px; marker-end: url('#sequenceflow-end-white-hsl_225_10_15_-8kghkbrvfh9w05wbobg74vre9');" data-corner-radius="5" d="M1002,182L1116,182"/></g><path d="M1002,182L1116,182" style="fill: none; stroke-opacity: 0; stroke: white; stroke-width: 15px; --darkreader-inline-fill: none; --darkreader-inline-stroke: #e8e6e3;" class="djs-hit djs-hit-stroke" data-darkreader-inline-fill="" data-darkreader-inline-stroke=""/><rect x="997" y="177" rx="4" width="124" height="10" style="fill: none; --darkreader-inline-fill: none;" class="djs-outline" data-darkreader-inline-fill=""/></g></g><g class="djs-group"><g class="djs-element djs-connection" data-element-id="SequenceFlow_1" style="display: block;"><g class="djs-visual"><path style="fill: none; stroke-linecap: round; stroke-linejoin: round; stroke: rgb(34, 36, 42); stroke-width: 2px; marker-end: url('#sequenceflow-end-white-hsl_225_10_15_-8kghkbrvfh9w05wbobg74vre9');" data-corner-radius="5" d="M294,182L350,182"/></g><path d="M294,182L350,182" style="fill: none; stroke-opacity: 0; stroke: white; stroke-width: 15px;" class="djs-hit djs-hit-stroke"/><rect x="289" y="177" rx="4" width="66" height="10" style="fill: none;" class="djs-outline"/></g></g><g class="djs-group"><g class="djs-element djs-connection" data-element-id="sequenceFlow_178" style="display: block;"><g class="djs-visual"><path style="fill: none; stroke-linecap: round; stroke-linejoin: round; stroke: rgb(34, 36, 42); stroke-width: 2px; marker-end: url('#sequenceflow-end-white-hsl_225_10_15_-8kghkbrvfh9w05wbobg74vre9'); --darkreader-inline-fill: none; --darkreader-inline-stroke: #d0ccc6;" data-corner-radius="5" d="M450,182L475,182C477.5,182,480,184.5,480,187L480,349C480,351.5,482.5,354,485,354L523,354" data-darkreader-inline-fill="" data-darkreader-inline-stroke=""/></g><path d="M450,182L480,182L480,354L523,354" style="fill: none; stroke-opacity: 0; stroke: white; stroke-width: 15px; --darkreader-inline-fill: none; --darkreader-inline-stroke: #e8e6e3;" class="djs-hit djs-hit-stroke" data-darkreader-inline-fill="" data-darkreader-inline-stroke=""/><rect x="445" y="177" rx="4" width="83" height="182" style="fill: none; --darkreader-inline-fill: none;" class="djs-outline" data-darkreader-inline-fill=""/></g></g><g class="djs-group"><g class="djs-element djs-connection" data-element-id="reviewSuccessful" style="display: block;"><g class="djs-visual"><path style="fill: none; stroke-linecap: round; stroke-linejoin: round; stroke: rgb(34, 36, 42); stroke-width: 2px; marker-end: url('#sequenceflow-end-white-hsl_225_10_15_-8kghkbrvfh9w05wbobg74vre9'); --darkreader-inline-fill: none; --darkreader-inline-stroke: #d0ccc6;" data-corner-radius="5" d="M982,162L982,130C982,127.5,979.5,125,977,125L578,125C575.5,125,573,127.5,573,130L573,314" data-darkreader-inline-fill="" data-darkreader-inline-stroke=""/></g><path d="M982,162L982,125L573,125L573,314" style="fill: none; stroke-opacity: 0; stroke: white; stroke-width: 15px; --darkreader-inline-fill: none; --darkreader-inline-stroke: #e8e6e3;" class="djs-hit djs-hit-stroke" data-darkreader-inline-fill="" data-darkreader-inline-stroke=""/><rect x="568" y="120" rx="4" width="419" height="199" style="fill: none; --darkreader-inline-fill: none;" class="djs-outline" data-darkreader-inline-fill=""/></g></g><g class="djs-group"><g class="djs-element djs-shape" data-element-id="reviewSuccessful_label" transform="matrix(1, 0, 0, 1, 997, 126)" style="display: block;"><g class="djs-visual"><text style="font-family: Arial, sans-serif; font-size: 11px; font-weight: normal; fill: rgb(34, 36, 42); --darkreader-inline-fill: #d0ccc6;" lineHeight="1.2" class="djs-label" data-darkreader-inline-fill=""><tspan x="0" y="9.899999999999999">yes</tspan></text></g><rect style="fill: none; stroke-opacity: 0; stroke: white; stroke-width: 15px; --darkreader-inline-fill: none; --darkreader-inline-stroke: #e8e6e3;" class="djs-hit djs-hit-all" x="0" y="0" width="18" height="14" data-darkreader-inline-fill="" data-darkreader-inline-stroke=""/><rect x="-5" y="-5" rx="4" width="28" height="24" style="fill: none; --darkreader-inline-fill: none;" class="djs-outline" data-darkreader-inline-fill=""/></g></g><g class="djs-group"><g class="djs-element djs-connection" data-element-id="invoiceApproved" style="display: block;"><g class="djs-visual"><path style="fill: none; stroke-linecap: round; stroke-linejoin: round; stroke: rgb(34, 36, 42); stroke-width: 2px; marker-end: url('#sequenceflow-end-white-hsl_225_10_15_-8kghkbrvfh9w05wbobg74vre9');" data-corner-radius="5" d="M720,354L810,354"/></g><path d="M720,354L810,354" style="fill: none; stroke-opacity: 0; stroke: white; stroke-width: 15px; --darkreader-inline-fill: none; --darkreader-inline-stroke: #e8e6e3;" class="djs-hit djs-hit-stroke" data-darkreader-inline-fill="" data-darkreader-inline-stroke=""/><rect x="715" y="349" rx="4" width="100" height="10" style="fill: none; --darkreader-inline-fill: none;" class="djs-outline" data-darkreader-inline-fill=""/></g></g><g class="djs-group"><g class="djs-element djs-connection" data-element-id="sequenceFlow_183" style="display: block;"><g class="djs-visual"><path style="fill: none; stroke-linecap: round; stroke-linejoin: round; stroke: rgb(34, 36, 42); stroke-width: 2px; marker-end: url('#sequenceflow-end-white-hsl_225_10_15_-8kghkbrvfh9w05wbobg74vre9');" data-corner-radius="5" d="M750,182L962,182"/></g><path d="M750,182L962,182" style="fill: none; stroke-opacity: 0; stroke: white; stroke-width: 15px; --darkreader-inline-fill: none; --darkreader-inline-stroke: #e8e6e3;" class="djs-hit djs-hit-stroke" data-darkreader-inline-fill="" data-darkreader-inline-stroke=""/><rect x="745" y="177" rx="4" width="222" height="10" style="fill: none; --darkreader-inline-fill: none;" class="djs-outline" data-darkreader-inline-fill=""/></g></g><g class="djs-group"><g class="djs-element djs-connection" data-element-id="sequenceFlow_180" style="display: block;"><g class="djs-visual"><path style="fill: none; stroke-linecap: round; stroke-linejoin: round; stroke: rgb(34, 36, 42); stroke-width: 2px; marker-end: url('#sequenceflow-end-white-hsl_225_10_15_-8kghkbrvfh9w05wbobg74vre9'); --darkreader-inline-fill: none; --darkreader-inline-stroke: #d0ccc6;" data-corner-radius="5" d="M623,354L680,354" data-darkreader-inline-fill="" data-darkreader-inline-stroke=""/></g><path d="M623,354L680,354" style="fill: none; stroke-opacity: 0; stroke: white; stroke-width: 15px; --darkreader-inline-fill: none; --darkreader-inline-stroke: #e8e6e3;" class="djs-hit djs-hit-stroke" data-darkreader-inline-fill="" data-darkreader-inline-stroke=""/><rect x="618" y="349" rx="4" width="67" height="10" style="fill: none; --darkreader-inline-fill: none;" class="djs-outline" data-darkreader-inline-fill=""/></g></g><g class="djs-group"><g class="djs-element djs-connection" data-element-id="invoiceNotApproved" style="display: block;"><g class="djs-visual"><path style="fill: none; stroke-linecap: round; stroke-linejoin: round; stroke: rgb(34, 36, 42); stroke-width: 2px; marker-end: url('#sequenceflow-end-white-hsl_225_10_15_-8kghkbrvfh9w05wbobg74vre9');" data-corner-radius="5" d="M700,334L700,222"/></g><path d="M700,334L700,222" style="fill: none; stroke-opacity: 0; stroke: white; stroke-width: 15px; --darkreader-inline-fill: none; --darkreader-inline-stroke: #e8e6e3;" class="djs-hit djs-hit-stroke" data-darkreader-inline-fill="" data-darkreader-inline-stroke=""/><rect x="695" y="217" rx="4" width="10" height="122" style="fill: none; --darkreader-inline-fill: none;" class="djs-outline" data-darkreader-inline-fill=""/></g></g><g class="djs-group"><g class="djs-element djs-connection" data-element-id="Flow_08lg9dz" style="display: block;"><g class="djs-visual"><path style="fill: none; stroke-linecap: round; stroke-linejoin: round; stroke: rgb(34, 36, 42); stroke-width: 2px; marker-end: url('#sequenceflow-end-white-hsl_225_10_15_-8kghkbrvfh9w05wbobg74vre9');" data-corner-radius="5" d="M910,354L1080,354"/></g><path d="M910,354L1080,354" style="fill: none; stroke-opacity: 0; stroke: white; stroke-width: 15px; --darkreader-inline-fill: none; --darkreader-inline-stroke: #e8e6e3;" class="djs-hit djs-hit-stroke" data-darkreader-inline-fill="" data-darkreader-inline-stroke=""/><rect x="905" y="349" rx="4" width="180" height="10" style="fill: none; --darkreader-inline-fill: none;" class="djs-outline" data-darkreader-inline-fill=""/></g></g></g></g><g class="djs-group"><g class="djs-element djs-connection" data-element-id="DataInputAssociation_1ya9ydv" style="display: block;"><g class="djs-visual"><path style="fill: none; stroke-linecap: round; stroke-linejoin: round; stroke: rgb(34, 36, 42); stroke-width: 2px; marker-end: url('#association-end-white-hsl_225_10_15_-8kghkbrvfh9w05wbobg74vre9'); stroke-dasharray: 0px, 5px; --darkreader-inline-fill: none; --darkreader-inline-stroke: #d0ccc6;" data-corner-radius="5" d="M1001,402L1080,380" data-darkreader-inline-fill="" data-darkreader-inline-stroke=""/></g><path d="M1001,402L1080,380" style="fill: none; stroke-opacity: 0; stroke: white; stroke-width: 15px; --darkreader-inline-fill: none; --darkreader-inline-stroke: #e8e6e3;" class="djs-hit djs-hit-stroke" data-darkreader-inline-fill="" data-darkreader-inline-stroke=""/><rect x="996" y="375" rx="4" width="89" height="32" style="fill: none; --darkreader-inline-fill: none;" class="djs-outline" data-darkreader-inline-fill=""/></g></g><g class="djs-group"><g class="djs-element djs-shape" data-element-id="invoiceNotApproved_label" transform="matrix(1, 0, 0, 1, 678, 313)" style="display: block;"><g class="djs-visual"><text style="font-family: Arial, sans-serif; font-size: 11px; font-weight: normal; fill: rgb(34, 36, 42);" lineHeight="1.2" class="djs-label"><tspan x="0" y="9.899999999999999">no</tspan></text></g><rect style="fill: none; stroke-opacity: 0; stroke: white; stroke-width: 15px; --darkreader-inline-fill: none; --darkreader-inline-stroke: #e8e6e3;" class="djs-hit djs-hit-all" x="0" y="0" width="13" height="14" data-darkreader-inline-fill="" data-darkreader-inline-stroke=""/><rect x="-5" y="-5" rx="4" width="23" height="24" style="fill: none; --darkreader-inline-fill: none;" class="djs-outline" data-darkreader-inline-fill=""/></g></g><g class="djs-group"><g class="djs-element djs-shape" data-element-id="invoiceApproved_label" transform="matrix(1, 0, 0, 1, 771, 342)" style="display: block;"><g class="djs-visual"><text style="font-family: Arial, sans-serif; font-size: 11px; font-weight: normal; fill: rgb(34, 36, 42);" lineHeight="1.2" class="djs-label"><tspan x="0" y="9.899999999999999">yes</tspan></text></g><rect style="fill: none; stroke-opacity: 0; stroke: white; stroke-width: 15px; --darkreader-inline-fill: none; --darkreader-inline-stroke: #e8e6e3;" class="djs-hit djs-hit-all" x="0" y="0" width="18" height="14" data-darkreader-inline-fill="" data-darkreader-inline-stroke=""/><rect x="-5" y="-5" rx="4" width="28" height="24" style="fill: none; --darkreader-inline-fill: none;" class="djs-outline" data-darkreader-inline-fill=""/></g></g><g class="djs-group"><g class="djs-element djs-shape" data-element-id="reviewNotSuccessful_label" transform="matrix(1, 0, 0, 1, 1009, 181)" style="display: block;"><g class="djs-visual"><text style="font-family: Arial, sans-serif; font-size: 11px; font-weight: normal; fill: rgb(34, 36, 42);" lineHeight="1.2" class="djs-label"><tspan x="0" y="9.899999999999999">no</tspan></text></g><rect style="fill: none; stroke-opacity: 0; stroke: white; stroke-width: 15px; --darkreader-inline-fill: none; --darkreader-inline-stroke: #e8e6e3;" class="djs-hit djs-hit-all" x="0" y="0" width="13" height="14" data-darkreader-inline-fill="" data-darkreader-inline-stroke=""/><rect x="-5" y="-5" rx="4" width="23" height="24" style="fill: none; --darkreader-inline-fill: none;" class="djs-outline" data-darkreader-inline-fill=""/></g></g><g class="djs-group"><g class="djs-element djs-shape" data-element-id="Event_0zt05ik_label" transform="matrix(1, 0, 0, 1, 1104, 206)" style="display: block;"><g class="djs-visual"><text style="font-family: Arial, sans-serif; font-size: 11px; font-weight: normal; fill: rgb(34, 36, 42);" lineHeight="1.2" class="djs-label"><tspan x="0" y="9.899999999999999">Invoice not</tspan><tspan x="1.2166671752929688" y="23.099999999999998">processed</tspan></text></g><rect style="fill: none; stroke-opacity: 0; stroke: white; stroke-width: 15px;" class="djs-hit djs-hit-all" x="0" y="0" width="54" height="27"/><rect x="-5" y="-5" rx="4" width="64" height="37" style="fill: none;" class="djs-outline"/></g></g></svg>